<svg width="21" height="20" viewBox="0 0 21 20" fill="none" xmlns="http://www.w3.org/2000/svg">
<path d="M2.01562 4V18.0156H15.9844V19.9844H2.01562C1.45312 19.9844 0.96875 19.7812 0.5625 19.375C0.1875 19 0 18.5469 0 18.0156V4H2.01562ZM18 0.015625C18.5625 0.015625 19.0312 0.21875 19.4062 0.625C19.8125 1 20.0156 1.45313 20.0156 1.98438V13.9844C20.0156 14.5469 19.8125 15.0312 19.4062 15.4375C19.0312 15.8125 18.5625 16 18 16H6C5.4375 16 4.95312 15.8125 4.54688 15.4375C4.17188 15.0312 3.98438 14.5469 3.98438 13.9844V1.98438C3.98438 1.45313 4.17188 1 4.54688 0.625C4.95312 0.21875 5.4375 0.015625 6 0.015625H18ZM17.0156 9.01562V7H12.9844V3.01562H11.0156V7H6.98438V9.01562H11.0156V13H12.9844V9.01562H17.0156Z" fill="#333333"/>
</svg>
