<?xml version="1.0" encoding="utf-8"?>
<!-- Generator: Adobe Illustrator 24.1.3, SVG Export Plug-In . SVG Version: 6.00 Build 0)  -->
<svg version="1.1" id="Layer_1" xmlns="http://www.w3.org/2000/svg" xmlns:xlink="http://www.w3.org/1999/xlink" x="0px" y="0px"
	 viewBox="0 0 24 24" style="enable-background:new 0 0 24 24;" xml:space="preserve">
<style type="text/css">
	.st0{fill:#C1934C;}
</style>
<path class="st0" d="M22,4.04C22,2.8,21.2,2,19.96,2H4.04C2.8,2,2,2.8,2,4.04v15.93C2,21.2,2.79,22,4.03,22h7.44
	c0.26,0,0.44-0.06,0.55-0.17c0.08-0.09,0.12-0.2,0.12-0.33c-0.01-0.22-0.13-0.48-0.67-0.48H3.99c-0.64,0-1-0.37-1-1
	c0-5.34,0-10.68,0-16.02c0-0.64,0.37-1,1-1h16.02c0.64,0,1,0.37,1,1c0,5.34,0,10.68,0,16.02c0,0.63-0.37,1-1.01,1h-3.62v-6.05h0.54
	c0.45,0,0.89,0,1.33,0c0.36,0,0.54-0.16,0.58-0.51l0.04-0.29c0.1-0.78,0.19-1.55,0.29-2.33c0.03-0.23,0-0.39-0.11-0.51
	c-0.1-0.11-0.26-0.17-0.48-0.17h-2.21V8.94c0-0.27,0.05-0.32,0.31-0.32l1.89,0c0.43,0,0.62-0.18,0.62-0.6c0-0.87,0-1.73,0-2.6
	c0-0.42-0.18-0.6-0.62-0.6h-0.88c-0.59,0-1.18,0-1.76,0c-1.92,0.01-3.36,1.46-3.37,3.37c0,0.64,0,1.27,0,1.91v1.06h-0.82
	c-0.47,0-0.94,0-1.41,0c-0.4,0-0.59,0.19-0.59,0.59c0,0.87,0,1.75,0,2.62c0,0.42,0.18,0.6,0.6,0.6c0.46,0,0.93,0,1.39,0h0.83v6.43
	c0,0.06,0,0.13,0.01,0.2c0.06,0.25,0.23,0.4,0.48,0.4c0,0,0,0,0.01,0c0.24,0,0.42-0.15,0.48-0.4c0.01-0.06,0.01-0.12,0.01-0.21v-6.8
	c0-0.44-0.18-0.62-0.63-0.62h-2.17v-1.83h2.11c0.54,0,0.69-0.15,0.69-0.68l0-1.03c0-0.77,0-1.54,0-2.31c0-1.26,1.04-2.3,2.3-2.31
	c0.64,0,1.28,0,1.92,0l0.39,0c0.01,0,0.01,0,0.02,0v1.82H17.8c-0.41,0-0.81,0-1.22,0c-0.68,0.01-1.19,0.52-1.2,1.2
	c-0.01,0.79,0,1.57,0,2.36l0,0.39c0,0.36,0.2,0.56,0.57,0.56c0.46,0,0.93,0,1.39,0h0.79l-0.23,1.83h-1.89
	c-0.46,0-0.63,0.18-0.64,0.63v6.82c0,0.4,0.18,0.58,0.58,0.58h3.98c1.27,0,2.06-0.79,2.06-2.05L22,4.04z"/>
</svg>
