<?xml version="1.0" encoding="utf-8"?>
<!-- Generator: Adobe Illustrator 25.0.0, SVG Export Plug-In . SVG Version: 6.00 Build 0)  -->
<svg version="1.1" id="Layer_1" xmlns="http://www.w3.org/2000/svg" xmlns:xlink="http://www.w3.org/1999/xlink" x="0px" y="0px"
	 viewBox="0 0 14 14" style="enable-background:new 0 0 14 14;" xml:space="preserve">
<style type="text/css">
	.st0{fill:#333333;}
</style>
<g>
	<path class="st0" d="M9.3,12.2H8.2c-0.3,0-0.6-0.1-0.8-0.3c-0.2-0.2-0.3-0.5-0.3-0.8V8.8c0-0.3,0.1-0.6,0.3-0.8
		c0.2-0.2,0.5-0.3,0.8-0.3h1.2c0.3,0,0.6,0.1,0.8,0.3c0.2,0.2,0.3,0.5,0.3,0.8v2.3c0,0.3-0.1,0.6-0.3,0.8
		C9.9,12.1,9.6,12.2,9.3,12.2z M8.2,8.7C8.1,8.7,8.1,8.7,8.2,8.7l-0.1,2.4l0.1,0.1h1.2l0.1-0.1V8.8L9.3,8.7H8.2z"/>
</g>
<g>
	<path class="st0" d="M12.3,10.4H9.9c-0.3,0-0.5-0.2-0.5-0.5s0.2-0.5,0.5-0.5h2.3c0.3,0,0.5,0.2,0.5,0.5S12.5,10.4,12.3,10.4z"/>
</g>
<g>
	<path class="st0" d="M7.6,10.4H1.8c-0.3,0-0.5-0.2-0.5-0.5s0.2-0.5,0.5-0.5h5.8c0.3,0,0.5,0.2,0.5,0.5S7.9,10.4,7.6,10.4z"/>
</g>
<g>
	<path class="st0" d="M5.8,6.3H4.7C4.4,6.3,4.1,6.2,3.9,6S3.6,5.5,3.6,5.2V2.9c0-0.3,0.1-0.6,0.3-0.8s0.5-0.3,0.8-0.3h1.2
		c0.3,0,0.6,0.1,0.8,0.3s0.3,0.5,0.3,0.8v2.3c0,0.3-0.1,0.6-0.3,0.8S6.1,6.3,5.8,6.3z M4.7,2.8L4.7,2.8L4.6,5.2l0.1,0.1h1.2
		c0,0,0,0,0.1,0l0-2.4L5.8,2.8H4.7z"/>
</g>
<g>
	<path class="st0" d="M4.1,4.6H1.8c-0.3,0-0.5-0.2-0.5-0.5s0.2-0.5,0.5-0.5h2.3c0.3,0,0.5,0.2,0.5,0.5S4.4,4.6,4.1,4.6z"/>
</g>
<g>
	<path class="st0" d="M12.3,4.6H6.4c-0.3,0-0.5-0.2-0.5-0.5s0.2-0.5,0.5-0.5h5.8c0.3,0,0.5,0.2,0.5,0.5S12.5,4.6,12.3,4.6z"/>
</g>
</svg>
