<svg width="14" height="14" viewBox="0 0 14 14" fill="none" xmlns="http://www.w3.org/2000/svg">
<path fill-rule="evenodd" clip-rule="evenodd" d="M8.16536 8.1665H9.33203C9.48674 8.1665 9.63511 8.22796 9.74451 8.33736C9.85391 8.44675 9.91536 8.59513 9.91536 8.74984V11.0832C9.91536 11.2379 9.85391 11.3863 9.74451 11.4956C9.63511 11.605 9.48674 11.6665 9.33203 11.6665H8.16536C8.01065 11.6665 7.86228 11.605 7.75289 11.4956C7.64349 11.3863 7.58203 11.2379 7.58203 11.0832V8.74984C7.58203 8.59513 7.64349 8.44675 7.75289 8.33736C7.86228 8.22796 8.01065 8.1665 8.16536 8.1665V8.1665Z" stroke="#333333" stroke-linecap="round" stroke-linejoin="round"/>
<path d="M12.2513 9.9165H9.91797" stroke="#333333" stroke-linecap="round" stroke-linejoin="round"/>
<path d="M7.58333 9.91699H1.75" stroke="#333333" stroke-linecap="round" stroke-linejoin="round"/>
<path fill-rule="evenodd" clip-rule="evenodd" d="M5.83203 5.8335H4.66536C4.51066 5.8335 4.36228 5.77204 4.25289 5.66264C4.14349 5.55324 4.08203 5.40487 4.08203 5.25016V2.91683C4.08203 2.76212 4.14349 2.61375 4.25289 2.50435C4.36228 2.39495 4.51066 2.3335 4.66536 2.3335H5.83203C5.98674 2.3335 6.13511 2.39495 6.24451 2.50435C6.35391 2.61375 6.41537 2.76212 6.41537 2.91683V5.25016C6.41537 5.40487 6.35391 5.55324 6.24451 5.66264C6.13511 5.77204 5.98674 5.8335 5.83203 5.8335Z" stroke="#333333" stroke-linecap="round" stroke-linejoin="round"/>
<path d="M1.75 4.0835H4.08333" stroke="#333333" stroke-linecap="round" stroke-linejoin="round"/>
<path d="M6.41797 4.0835H12.2513" stroke="#333333" stroke-linecap="round" stroke-linejoin="round"/>
</svg>
