<?xml version="1.0" encoding="utf-8"?>
<!-- Generator: Adobe Illustrator 24.1.3, SVG Export Plug-In . SVG Version: 6.00 Build 0)  -->
<svg version="1.1" id="Layer_1" xmlns="http://www.w3.org/2000/svg" xmlns:xlink="http://www.w3.org/1999/xlink" x="0px" y="0px"
	 viewBox="0 0 24 24" style="enable-background:new 0 0 24 24;" xml:space="preserve">
<style type="text/css">
	.st0{fill:#C1934C;}
</style>
<g>
	<path class="st0" d="M12.02,2c1.64,0,3.29,0,4.93,0c2.42,0.01,4.41,1.6,4.93,3.96c0.08,0.36,0.11,0.74,0.11,1.11
		c0.01,3.29,0.01,6.58,0,9.87c0,2.54-1.74,4.59-4.25,5.01C17.47,21.99,17.19,22,16.91,22c-3.27,0-6.53,0-9.8,0
		c-2.57,0-4.6-1.71-5.04-4.23c-0.05-0.28-0.06-0.56-0.06-0.84c0-3.28,0-6.56,0-9.85c0-2.54,1.73-4.59,4.23-5.01
		C6.52,2.01,6.82,2,7.1,2C8.74,2,10.38,2,12.02,2z M12,21.3c1.66,0,3.32,0,4.98,0c2.41-0.01,4.31-1.9,4.31-4.31
		c0.01-3.33,0.01-6.65,0-9.98c0-2.39-1.9-4.3-4.29-4.3c-3.33-0.01-6.67-0.01-10,0c-2.39,0-4.29,1.91-4.29,4.3c0,3.33,0,6.65,0,9.98
		c0,0.26,0.02,0.52,0.07,0.78c0.41,2.11,2.14,3.53,4.29,3.53C8.71,21.3,10.36,21.3,12,21.3z"/>
	<path class="st0" d="M14.78,18.89c0.21,0,0.49-0.01,0.75-0.06c2-0.38,3.35-2,3.35-4.04c0-1.85,0-3.71,0-5.56
		c0-0.29-0.02-0.53-0.05-0.73c-0.35-1.99-2.01-3.37-4.04-3.38c-1.86,0-3.72,0-5.58,0c-0.29,0-0.52,0.02-0.73,0.06
		C6.47,5.54,5.11,7.16,5.11,9.22c0,1.86,0,3.72,0,5.58c0,0.29,0.02,0.53,0.06,0.75c0.38,1.99,2,3.34,4.03,3.34H12h0.8
		C13.46,18.89,14.12,18.89,14.78,18.89z M9.19,17.97c-1.8,0-3.16-1.36-3.16-3.16c0-1.87,0-3.75,0-5.63c0-1.76,1.38-3.15,3.14-3.15
		h5.65c1.76,0.01,3.14,1.39,3.15,3.15c0,1.88,0,3.75,0,5.63c0,1.8-1.36,3.16-3.16,3.16c-0.94,0-1.87,0-2.81,0
		C11.06,17.97,10.12,17.97,9.19,17.97z"/>
	<path class="st0" d="M12,8.68c-1.83,0-3.32,1.49-3.32,3.31c0,1.83,1.48,3.32,3.31,3.32c0,0,0,0,0,0c0.88,0,1.71-0.35,2.34-0.97
		c0.63-0.63,0.98-1.46,0.98-2.34C15.32,10.17,13.83,8.68,12,8.68z M13.69,13.7c-0.45,0.45-1.06,0.7-1.7,0.7c-0.01,0-0.01,0-0.02,0
		c-1.31-0.01-2.38-1.09-2.37-2.41c0-0.64,0.25-1.24,0.71-1.69c0.45-0.45,1.06-0.7,1.7-0.7c0.01,0,0.01,0,0.02,0
		c1.31,0.01,2.38,1.09,2.37,2.41C14.4,12.65,14.14,13.25,13.69,13.7z"/>
	<path class="st0" d="M15.73,7.39c0.49,0,0.89,0.41,0.89,0.9c-0.01,0.48-0.41,0.88-0.89,0.88c-0.49,0-0.89-0.41-0.89-0.9
		C14.85,7.78,15.25,7.39,15.73,7.39z"/>
</g>
</svg>
