<?xml version="1.0" encoding="utf-8"?>
<!-- Generator: Adobe Illustrator 24.1.3, SVG Export Plug-In . SVG Version: 6.00 Build 0)  -->
<svg version="1.1" id="Layer_1" xmlns="http://www.w3.org/2000/svg" xmlns:xlink="http://www.w3.org/1999/xlink" x="0px" y="0px"
	 viewBox="0 0 24 24" style="enable-background:new 0 0 24 24;" xml:space="preserve">
<style type="text/css">
	.st0{fill:#C1934C;}
</style>
<path class="st0" d="M22,13l0-1.74l0-1.41c0-1.17,0-2.35,0-3.52c0-0.44-0.14-0.78-0.44-1.03c-0.29-0.24-0.62-0.28-0.94-0.28
	l-12.02,0c-1.75,0-3.51,0-5.26,0c-0.27,0-0.62,0.03-0.91,0.29C2.04,5.64,2,6.08,2,6.37c0,2.5,0,5,0,7.5v3.75
	c0,0.9,0.46,1.36,1.36,1.36l10.19,0c0.53,0,1.06,0,1.59,0c1.84,0,3.68,0,5.51-0.01c0.27,0,0.53-0.06,0.74-0.16
	C21.8,18.6,22,18.22,22,17.64C22,16.1,22,14.55,22,13z M16.67,13.32c-0.2,0.26-0.2,0.57,0.01,0.83l3.14,3.49H4.18l3.19-3.54
	c0.17-0.26,0.13-0.61-0.1-0.83c-0.23-0.22-0.6-0.24-0.86-0.04l-3.08,3.38v-9.4l7.4,6.96c0.77,0.73,1.77,0.73,2.53,0.01
	c1.74-1.63,3.47-3.26,5.2-4.89l2.21-2.08v9.4l-2.92-3.24c-0.07-0.08-0.16-0.18-0.29-0.24C17.16,13.01,16.86,13.08,16.67,13.32z
	 M12.39,13.21c-0.23,0.21-0.35,0.23-0.48,0.18c-0.12-0.04-0.24-0.13-0.38-0.26c-1.6-1.5-3.19-3-4.78-4.5L4.32,6.35h15.36
	L12.39,13.21z"/>
</svg>
