<svg width="21" height="20" viewBox="0 0 21 20" fill="none" xmlns="http://www.w3.org/2000/svg">
<path d="M2.90625 2.96875C4.875 1 7.23438 0.015625 9.98438 0.015625C12.7656 0.015625 15.125 1 17.0625 2.96875C19.0312 4.90625 20.0156 7.25 20.0156 10C20.0156 12.75 19.0312 15.1094 17.0625 17.0781C15.125 19.0156 12.7656 19.9844 9.98438 19.9844C7.23438 19.9844 4.875 19.0156 2.90625 17.0781C0.96875 15.1094 0 12.75 0 10C0 7.25 0.96875 4.90625 2.90625 2.96875ZM12.0938 3.90625C11.5312 3.3125 10.8281 3.01562 9.98438 3.01562C9.17188 3.01562 8.46875 3.3125 7.875 3.90625C7.28125 4.46875 6.98438 5.17188 6.98438 6.01562C6.98438 6.82812 7.28125 7.53125 7.875 8.125C8.46875 8.71875 9.17188 9.01562 9.98438 9.01562C10.8281 9.01562 11.5312 8.71875 12.0938 8.125C12.6875 7.53125 12.9844 6.82812 12.9844 6.01562C12.9844 5.17188 12.6875 4.46875 12.0938 3.90625ZM6.5625 16.375C7.625 16.9375 8.76562 17.2188 9.98438 17.2188C11.2344 17.2188 12.375 16.9375 13.4062 16.375C14.4688 15.7812 15.3281 14.9844 15.9844 13.9844C15.9844 13.3594 15.6094 12.8125 14.8594 12.3438C14.1406 11.8438 13.3281 11.4844 12.4219 11.2656C11.5469 11.0156 10.7344 10.8906 9.98438 10.8906C9.26562 10.8906 8.45312 11.0156 7.54688 11.2656C6.67188 11.4844 5.85938 11.8438 5.10938 12.3438C4.39062 12.8125 4.01562 13.3594 3.98438 13.9844C4.64062 14.9844 5.5 15.7812 6.5625 16.375Z" fill="#333333"/>
</svg>
