<?xml version="1.0" encoding="utf-8"?>
<!-- Generator: Adobe Illustrator 24.1.3, SVG Export Plug-In . SVG Version: 6.00 Build 0)  -->
<svg version="1.1" id="Layer_1" xmlns="http://www.w3.org/2000/svg" xmlns:xlink="http://www.w3.org/1999/xlink" x="0px" y="0px"
	 viewBox="0 0 24 24" style="enable-background:new 0 0 24 24;" xml:space="preserve">
<style type="text/css">
	.st0{fill:#C1934C;}
</style>
<path class="st0" d="M21.11,6.66c-0.32-0.69-0.84-1.1-1.57-1.28c-0.86-0.21-1.79-0.34-2.83-0.39c-1.12-0.06-2.27-0.09-3.37-0.13
	c-0.45-0.02-0.89-0.03-1.34-0.05c-0.44,0.02-0.88,0.03-1.32,0.04C9.55,4.89,8.4,4.92,7.26,4.99c-0.7,0.04-1.42,0.15-2.11,0.25
	L4.76,5.31C3.9,5.43,3.29,5.92,2.95,6.76C2.69,7.4,2.53,7.9,2.42,8.37c-0.46,2.04-0.54,4.12-0.25,6.16
	c0.11,0.74,0.29,1.71,0.69,2.63c0.4,0.9,1.04,1.42,1.97,1.59c1.48,0.27,2.95,0.35,4.33,0.39c2.17,0.07,5.02,0.11,7.89-0.13
	c0.84-0.07,1.68-0.22,2.49-0.37c0.7-0.13,1.23-0.55,1.57-1.25l0.03-0.07c0.05-0.11,0.11-0.22,0.15-0.34
	c0.44-1.13,0.58-2.31,0.65-3.31c0.11-1.58,0.06-3.12-0.16-4.58C21.68,8.41,21.51,7.51,21.11,6.66z M20.87,13.92
	c-0.08,0.85-0.22,1.64-0.45,2.42c-0.25,0.88-0.79,1.34-1.64,1.41c-0.44,0.04-0.88,0.08-1.33,0.13c-0.65,0.07-1.33,0.14-1.99,0.18
	c-0.8,0.05-1.62,0.06-2.49,0.07c-0.39,0.01-0.79,0.01-1.22,0.02h0h0c-0.33-0.01-0.68-0.02-1.05-0.03c-0.92-0.03-1.97-0.05-2.99-0.1
	c-0.8-0.04-1.85-0.11-2.87-0.35c-0.4-0.09-0.69-0.32-0.88-0.68c-0.38-0.7-0.55-1.47-0.65-2.06C2.9,12.71,2.97,10.5,3.5,8.36
	c0.1-0.4,0.26-0.8,0.42-1.18l0.06-0.15c0.15-0.37,0.44-0.6,0.83-0.66c0.15-0.02,0.3-0.05,0.46-0.08c0.44-0.08,0.9-0.16,1.36-0.2
	c2.65-0.24,5.29-0.22,7.75-0.17c1.43,0.03,2.95,0.09,4.44,0.36c0.06,0.01,0.11,0.02,0.17,0.04c0.06,0.02,0.13,0.03,0.19,0.04
	c0.5,0.07,0.84,0.37,1.06,0.9c0.26,0.66,0.43,1.37,0.56,2.32C20.98,11,21,12.46,20.87,13.92z"/>
<path class="st0" d="M9.8,15.86c0.2,0.19,0.44,0.19,0.74,0l5.49-3.37c0.22-0.13,0.33-0.31,0.33-0.5c0-0.19-0.12-0.37-0.33-0.5
	c-0.85-0.52-1.69-1.04-2.54-1.56c-0.99-0.61-1.98-1.21-2.97-1.82c-0.25-0.15-0.44-0.17-0.63-0.06c-0.18,0.1-0.26,0.27-0.26,0.56
	c0,0.92,0,1.83,0,2.75l0,0.61l0,0.98c0,0.82,0,1.64,0,2.45C9.63,15.62,9.69,15.76,9.8,15.86z M10.69,9.45l0.15,0.09
	c1.29,0.79,2.54,1.57,3.83,2.37L14.82,12l-0.14,0.09c-1.28,0.8-2.54,1.57-3.83,2.37l-0.15,0.09V9.45z"/>
</svg>
