<?xml version="1.0" encoding="utf-8"?>
<!-- Generator: Adobe Illustrator 24.1.3, SVG Export Plug-In . SVG Version: 6.00 Build 0)  -->
<svg version="1.1" id="Layer_1" xmlns="http://www.w3.org/2000/svg" xmlns:xlink="http://www.w3.org/1999/xlink" x="0px" y="0px"
	 viewBox="0 0 24 24" style="enable-background:new 0 0 24 24;" xml:space="preserve">
<style type="text/css">
	.st0{fill:#C1934C;}
</style>
<path class="st0" d="M8.21,9.81c-0.59,0-1.11,0-1.63,0c-0.44,0-0.69-0.21-0.69-0.56c0-0.34,0.24-0.54,0.67-0.54c0.85,0,1.7,0,2.55,0
	c0.25,0,0.47,0.05,0.6,0.28c0.13,0.24,0.06,0.45-0.08,0.66c-0.66,1.06-1.32,2.11-1.98,3.17c-0.05,0.09-0.11,0.17-0.2,0.32
	c0.31,0,0.58,0,0.85,0c0.31,0,0.61-0.01,0.92,0c0.34,0.01,0.57,0.25,0.56,0.56c-0.01,0.3-0.23,0.53-0.55,0.54
	c-0.92,0.01-1.84,0.01-2.76,0c-0.5-0.01-0.72-0.46-0.45-0.9c0.57-0.92,1.15-1.84,1.72-2.76C7.88,10.35,8.02,10.1,8.21,9.81z"/>
<path class="st0" d="M12.63,14.02c-1.08,0.42-2.01,0.17-2.56-0.7c-0.43-0.69-0.37-1.6,0.15-2.24c0.53-0.64,1.4-0.89,2.16-0.59
	c0.18,0.07,0.3,0.07,0.47-0.05c0.34-0.23,0.8,0,0.81,0.41c0.02,0.96,0.02,1.92,0,2.88c-0.01,0.42-0.47,0.64-0.83,0.42
	C12.75,14.12,12.69,14.07,12.63,14.02z M11.72,11.47c-0.47,0-0.83,0.37-0.83,0.84c0,0.45,0.37,0.81,0.82,0.82
	c0.46,0.01,0.84-0.36,0.84-0.83C12.55,11.83,12.19,11.47,11.72,11.47z"/>
<path class="st0" d="M17.84,10.37c1.06,0,1.93,0.87,1.93,1.93c0,1.07-0.88,1.95-1.96,1.94c-1.06,0-1.92-0.87-1.92-1.94
	C15.89,11.22,16.76,10.36,17.84,10.37z M17.85,11.47c-0.47-0.01-0.84,0.34-0.84,0.82c-0.01,0.47,0.35,0.84,0.82,0.84
	c0.45,0,0.82-0.35,0.83-0.81C18.67,11.86,18.31,11.48,17.85,11.47z"/>
<path class="st0" d="M15.32,11.21c0,0.79,0,1.57,0,2.36c0,0.43-0.19,0.67-0.54,0.68c-0.35,0.01-0.57-0.25-0.57-0.68
	c0-1.59,0-3.19,0-4.78c0-0.36,0.17-0.59,0.45-0.63c0.28-0.05,0.49,0.06,0.6,0.31c0.05,0.12,0.05,0.26,0.05,0.39
	C15.33,9.63,15.32,10.42,15.32,11.21z"/>
<path class="st0" d="M4.99,3.13C4.46,3.87,3.9,4.56,3.46,5.31c-2.42,4.18-1.79,9.28,1.57,12.75c0.26,0.27,0.33,0.54,0.28,0.89
	c-0.13,0.87-0.46,1.58-1.35,1.93c-0.25,0.1-0.33,0.32-0.29,0.58c0.04,0.27,0.22,0.41,0.48,0.46c0.96,0.18,1.9,0.09,2.8-0.29
	c0.39-0.16,0.77-0.33,1.15-0.5c0.48-0.21,0.96-0.22,1.46-0.03c1.84,0.71,3.75,1.01,5.72,0.9c1.73-0.1,3.37-0.52,4.93-1.25
	c0.45-0.21,1.11-0.53,1.79-0.87c0-4.97,0-9.93,0-14.9c0-1.76-1.18-2.95-2.94-2.95c-4.19,0-8.39,0-12.58,0L5.65,2.44L4.99,3.13z
	 M20.89,5.06c0,4.58,0,9.16,0.01,13.73c0,0.26-0.08,0.4-0.31,0.53c-2.33,1.3-4.81,1.79-7.46,1.52c-1.01-0.11-2.01-0.31-2.95-0.69
	c-0.96-0.39-1.87-0.32-2.79,0.09c-0.51,0.23-1.03,0.42-1.55,0.62c-0.02-0.03-0.04-0.06-0.06-0.09c0.44-0.62,0.65-1.32,0.66-2.07
	c0.01-0.5-0.15-0.92-0.52-1.29C3.9,15.27,2.9,12.75,3.15,9.8c0.2-2.34,1.22-4.3,2.82-5.99c0.48-0.51,0.98-0.7,1.68-0.7
	c3.77,0.04,7.54,0.02,11.31,0.02C20.24,3.13,20.89,3.78,20.89,5.06z"/>
</svg>
