<svg width="40" height="40" viewBox="0 0 40 40" fill="none" xmlns="http://www.w3.org/2000/svg">
<path d="M6.25 16.25H6.875V35C6.87593 35.8285 7.20547 36.6228 7.79132 37.2087C8.37717 37.7945 9.17148 38.1241 10 38.125H30C30.8285 38.1241 31.6228 37.7945 32.2087 37.2087C32.7945 36.6228 33.1241 35.8285 33.125 35V16.25H33.75C34.1435 16.25 34.5271 16.1262 34.8463 15.8961C35.1656 15.666 35.4043 15.3413 35.5288 14.9679C35.6532 14.5946 35.6571 14.1916 35.5397 13.816C35.4224 13.4403 35.1898 13.1111 34.875 12.875L21.125 2.56252C20.7998 2.32059 20.4053 2.18994 20 2.18994C19.5947 2.18994 19.2002 2.32059 18.875 2.56252L5.125 12.875C4.81018 13.1111 4.57762 13.4403 4.46029 13.816C4.34295 14.1916 4.34677 14.5946 4.47122 14.9679C4.59566 15.3413 4.83442 15.666 5.15367 15.8961C5.47292 16.1262 5.85647 16.25 6.25 16.25ZM16.25 36.875V30.625C16.2502 30.4593 16.3161 30.3004 16.4333 30.1833C16.5504 30.0661 16.7093 30.0002 16.875 30H23.125C23.2907 30.0002 23.4496 30.0661 23.5667 30.1833C23.6839 30.3004 23.7498 30.4593 23.75 30.625V36.875H16.25ZM31.875 35C31.8744 35.4971 31.6767 35.9737 31.3252 36.3252C30.9737 36.6767 30.4971 36.8745 30 36.875H25V30.625C24.9994 30.1279 24.8017 29.6513 24.4502 29.2998C24.0987 28.9483 23.6221 28.7506 23.125 28.75H16.875C16.3779 28.7506 15.9013 28.9483 15.5498 29.2998C15.1983 29.6513 15.0006 30.1279 15 30.625V36.875H10C9.50289 36.8745 9.0263 36.6767 8.67479 36.3252C8.32328 35.9737 8.12556 35.4971 8.125 35V16.25H31.875V35ZM5.875 13.875L19.625 3.56252C19.7334 3.48187 19.8649 3.43831 20 3.43831C20.1351 3.43831 20.2666 3.48187 20.375 3.56252L34.125 13.875C34.2299 13.9537 34.3075 14.0635 34.3466 14.1887C34.3857 14.3139 34.3844 14.4482 34.3429 14.5727C34.3014 14.6971 34.2219 14.8053 34.1154 14.882C34.009 14.9587 33.8812 15 33.75 15H6.25C6.11882 15 5.99097 14.9587 5.88456 14.882C5.77814 14.8053 5.69855 14.6971 5.65707 14.5727C5.61559 14.4482 5.61432 14.3139 5.65343 14.1887C5.69254 14.0635 5.77006 13.9537 5.875 13.875Z" fill="#F6891F" stroke="#F6891F" stroke-width="0.8"/>
<path d="M11.875 25.625C12.0408 25.625 12.1997 25.5591 12.3169 25.4419C12.4342 25.3247 12.5 25.1657 12.5 25V23.5416L13.875 25.375C13.9745 25.5076 14.1225 25.5953 14.2866 25.6187C14.4507 25.6421 14.6174 25.5994 14.75 25.5C14.8826 25.4005 14.9703 25.2525 14.9937 25.0884C15.0172 24.9243 14.9745 24.7576 14.875 24.625L13.75 23.125C14.0814 23.1246 14.3991 22.9928 14.6335 22.7585C14.8678 22.5241 14.9996 22.2064 15 21.875V20.625C14.9996 20.2936 14.8678 19.9759 14.6335 19.7415C14.3991 19.5072 14.0814 19.3754 13.75 19.375H12.5C12.1686 19.3754 11.8509 19.5072 11.6165 19.7415C11.3822 19.9759 11.2504 20.2936 11.25 20.625V25C11.25 25.1657 11.3158 25.3247 11.4331 25.4419C11.5503 25.5591 11.7092 25.625 11.875 25.625ZM12.5 20.625H13.75V21.875H12.5V20.625Z" fill="#F6891F"/>
<path d="M16.25 25.625H18.75C18.9158 25.625 19.0747 25.5592 19.1919 25.4419C19.3092 25.3247 19.375 25.1658 19.375 25C19.375 24.8342 19.3092 24.6753 19.1919 24.5581C19.0747 24.4408 18.9158 24.375 18.75 24.375H16.875V23.125H18.75C18.9158 23.125 19.0747 23.0592 19.1919 22.9419C19.3092 22.8247 19.375 22.6658 19.375 22.5C19.375 22.3342 19.3092 22.1753 19.1919 22.0581C19.0747 21.9408 18.9158 21.875 18.75 21.875H16.875V20.625H18.75C18.9158 20.625 19.0747 20.5592 19.1919 20.4419C19.3092 20.3247 19.375 20.1658 19.375 20C19.375 19.8342 19.3092 19.6753 19.1919 19.5581C19.0747 19.4408 18.9158 19.375 18.75 19.375H16.25C16.0842 19.375 15.9253 19.4408 15.8081 19.5581C15.6908 19.6753 15.625 19.8342 15.625 20V25C15.625 25.1658 15.6908 25.3247 15.8081 25.4419C15.9253 25.5592 16.0842 25.625 16.25 25.625Z" fill="#F6891F"/>
<path d="M20.625 25.625C20.7908 25.625 20.9497 25.5592 21.0669 25.4419C21.1842 25.3247 21.25 25.1658 21.25 25V22.1793L23.22 25.3313C23.2919 25.4464 23.3994 25.535 23.5261 25.5836C23.6528 25.6322 23.7919 25.6383 23.9223 25.6009C24.0528 25.5634 24.1675 25.4846 24.2492 25.3762C24.3309 25.2678 24.375 25.1357 24.375 25V20C24.375 19.8342 24.3092 19.6753 24.1919 19.5581C24.0747 19.4408 23.9158 19.375 23.75 19.375C23.5842 19.375 23.4253 19.4408 23.3081 19.5581C23.1908 19.6753 23.125 19.8342 23.125 20V22.8207L21.155 19.6688C21.0831 19.5537 20.9756 19.4651 20.8489 19.4165C20.7222 19.3679 20.5832 19.3618 20.4527 19.3992C20.3222 19.4366 20.2075 19.5155 20.1258 19.6239C20.0442 19.7323 20 19.8643 20 20V25C20 25.1658 20.0658 25.3247 20.1831 25.4419C20.3003 25.5592 20.4592 25.625 20.625 25.625Z" fill="#F6891F"/>
<path d="M25.625 20.625H26.25V25C26.25 25.1658 26.3158 25.3247 26.4331 25.4419C26.5503 25.5592 26.7092 25.625 26.875 25.625C27.0408 25.625 27.1997 25.5592 27.3169 25.4419C27.4342 25.3247 27.5 25.1658 27.5 25V20.625H28.125C28.2908 20.625 28.4497 20.5592 28.5669 20.4419C28.6842 20.3247 28.75 20.1658 28.75 20C28.75 19.8342 28.6842 19.6753 28.5669 19.5581C28.4497 19.4408 28.2908 19.375 28.125 19.375H25.625C25.4592 19.375 25.3003 19.4408 25.1831 19.5581C25.0658 19.6753 25 19.8342 25 20C25 20.1658 25.0658 20.3247 25.1831 20.4419C25.3003 20.5592 25.4592 20.625 25.625 20.625Z" fill="#F6891F"/>
</svg>
