<svg width="210" height="30" viewBox="0 0 210 30" fill="none" xmlns="http://www.w3.org/2000/svg">
<path d="M154.548 10.6917C154.628 10.6917 154.707 10.6119 154.707 10.5321V7.97891C154.707 7.89912 154.628 7.81934 154.548 7.81934H143.058C142.859 7.81934 142.659 7.85923 142.5 7.93902C142.34 8.0188 142.181 8.09859 142.061 8.25817C141.941 8.37785 141.822 8.53742 141.782 8.697C141.702 8.85657 141.662 9.05604 141.662 9.25551V18.4709C141.662 19.0693 141.782 19.6677 142.021 20.2263C142.46 21.1039 143.218 21.7422 144.175 22.0215C144.574 22.1411 144.973 22.2209 145.372 22.2209H154.588C154.667 22.2209 154.747 22.1411 154.747 22.0614V19.5481C154.747 19.4683 154.667 19.3885 154.588 19.3885H145.412C144.973 19.4284 144.574 19.1491 144.534 18.7103C144.534 18.6305 144.534 18.5906 144.534 18.5108V16.4763H153.471C153.55 16.4763 153.63 16.3965 153.63 16.3167V13.7236C153.63 13.6438 153.55 13.564 153.471 13.564H144.574V10.6518L154.548 10.6917Z" fill="#6D3815"/>
<path d="M94.9867 22.2605C94.9069 22.2605 94.8271 22.1807 94.8271 22.1009V16.4759H86.1702V22.1009C86.1702 22.1807 86.0904 22.2605 86.0106 22.2605H83.4574C83.3776 22.2605 83.2979 22.1807 83.2979 22.1009V8.01846C83.2979 7.93867 83.3776 7.85889 83.4574 7.85889H86.0106C86.0904 7.85889 86.1702 7.93867 86.1702 8.01846V13.6435H94.8271V8.01846C94.8271 7.93867 94.9069 7.85889 94.9867 7.85889H97.5399C97.6197 7.85889 97.6995 7.93867 97.6995 8.01846V22.1009C97.6995 22.1807 97.6197 22.2605 97.5399 22.2605H94.9867Z" fill="#6D3815"/>
<path d="M130.333 22.4203C130.094 22.4203 129.854 22.3804 129.655 22.2607C129.455 22.141 129.256 21.9416 129.136 21.7421L124.867 14.2421V22.1012C124.867 22.1809 124.788 22.2607 124.708 22.2607H122.155C122.075 22.2607 121.995 22.1809 121.995 22.1012V9.09584C121.995 8.45754 122.434 7.89903 123.032 7.69956C123.152 7.65967 123.272 7.65967 123.391 7.65967H123.511C123.671 7.65967 123.79 7.69956 123.95 7.77935C124.109 7.81924 124.229 7.89903 124.349 8.01871C124.469 8.13839 124.548 8.25807 124.628 8.37775L130.293 18.2714L135.958 8.37775C136.117 8.0985 136.357 7.89903 136.636 7.77935C136.796 7.69956 136.995 7.65967 137.155 7.65967C137.274 7.65967 137.434 7.65967 137.554 7.69956C137.873 7.77935 138.112 7.97882 138.312 8.21818C138.511 8.45754 138.591 8.77669 138.591 9.09584V22.1012C138.591 22.1809 138.511 22.2607 138.431 22.2607H135.878C135.798 22.2607 135.719 22.1809 135.719 22.1012V14.2421L131.45 21.7421C131.33 21.9815 131.131 22.141 130.931 22.2607C130.852 22.3804 130.612 22.4203 130.333 22.4203Z" fill="#6D3815"/>
<path d="M157.938 22.2605C157.859 22.2605 157.779 22.1807 157.779 22.1009V19.5477C157.779 19.4679 157.859 19.3881 157.938 19.3881H167.274C167.673 19.428 168.032 19.2685 168.311 18.9892C168.55 18.7099 168.71 18.311 168.67 17.9121C168.67 17.7126 168.63 17.5131 168.55 17.3137C168.47 17.1541 168.391 16.9945 168.271 16.8748C168.151 16.7552 167.992 16.6355 167.832 16.5557C167.633 16.4759 167.433 16.436 167.234 16.436H161.848C161.369 16.436 160.931 16.3562 160.452 16.1967C159.375 15.8775 158.497 15.1594 158.018 14.1621C157.739 13.5238 157.579 12.8456 157.619 12.1674C157.619 11.4892 157.739 10.811 158.018 10.1727C158.497 9.17538 159.375 8.4174 160.452 8.09825C160.891 7.93867 161.369 7.85889 161.848 7.85889H170.545C170.625 7.85889 170.704 7.93867 170.704 8.01846V10.5717C170.704 10.6514 170.625 10.7312 170.545 10.7312H161.888C161.489 10.6913 161.13 10.8509 160.851 11.1302C160.571 11.4094 160.452 11.8084 160.492 12.2073C160.452 12.6062 160.611 12.9653 160.851 13.2844C161.13 13.5637 161.489 13.7232 161.888 13.6834H167.274C167.593 13.6834 167.912 13.7232 168.191 13.803C168.869 13.9626 169.508 14.2818 170.026 14.7206C170.306 14.9599 170.585 15.2392 170.784 15.5185C171.024 15.8376 171.183 16.2365 171.303 16.6355C171.423 17.0743 171.502 17.553 171.502 18.0318C171.502 18.5105 171.423 18.9892 171.303 19.428C171.183 19.827 171.024 20.186 170.784 20.5451C170.585 20.8642 170.306 21.1435 170.026 21.3828C169.747 21.5823 169.428 21.7818 169.109 21.9413C168.51 22.2206 167.912 22.3403 167.274 22.3403L157.938 22.2605Z" fill="#6D3815"/>
<path d="M106.875 22.2604L106.755 22.1407V19.5078L106.875 19.3881H115.333C115.412 19.3881 115.492 19.3083 115.492 19.2684V12.1673L115.452 12.0477L109.947 6.54234L109.827 6.50244L109.708 6.54234L104.202 12.0477L104.162 12.1673V22.1407L104.043 22.2604H101.37L101.29 22.1407V10.9705L101.33 10.8907L109.149 3.07159C109.309 2.87212 109.548 2.79234 109.787 2.75244C110.027 2.75244 110.266 2.87212 110.386 3.0317C110.785 3.47053 118.165 10.811 118.205 10.8907L118.245 10.9705V22.1407L118.165 22.2604H106.875Z" fill="#6D3815"/>
<path d="M37.5797 22.2606C37.3005 22.2606 37.0611 22.2207 36.7818 22.1808C36.5026 22.101 36.2233 22.0212 35.9441 21.9016C35.6648 21.7819 35.3856 21.6223 35.1462 21.4228C34.9068 21.2234 34.6675 20.984 34.468 20.7048C34.2685 20.4255 34.109 20.0665 33.9893 19.7473C33.8696 19.3484 33.7898 18.9494 33.8297 18.5106V11.609C33.8297 11.3298 33.8696 11.0904 33.9095 10.8111C33.9494 10.5319 34.0691 10.2526 34.1888 9.97337C34.3084 9.69412 34.468 9.41486 34.6675 9.1755C34.8669 8.93614 35.1063 8.69678 35.3856 8.49731C35.6648 8.29784 35.984 8.13827 36.343 8.01858C36.7419 7.8989 37.1409 7.81912 37.5797 7.85901H46.7951C46.8749 7.85901 46.9547 7.9388 46.9547 8.01858V10.5718C46.9547 10.6516 46.8749 10.7314 46.7951 10.7314H37.6196C37.3802 10.7314 37.1409 10.8111 36.9414 10.9707C36.7818 11.1702 36.7021 11.4095 36.7021 11.6489V18.5505C36.6622 18.9893 36.9813 19.3883 37.4201 19.4282C37.4999 19.4282 37.5398 19.4282 37.6196 19.4282H46.835C46.9148 19.4282 46.9946 19.5079 46.9946 19.5877V22.1409C46.9946 22.2207 46.9148 22.3005 46.835 22.3005L37.5797 22.2606Z" fill="#6D3815"/>
<path d="M62.7927 10.6917C62.8725 10.6917 62.9523 10.6119 62.9523 10.5321V7.97891C62.9523 7.89912 62.8725 7.81934 62.7927 7.81934H51.3034C51.1039 7.81934 50.9044 7.85923 50.7448 7.93902C50.5853 8.0188 50.4257 8.09859 50.306 8.25817C50.1863 8.37785 50.0667 8.53742 49.9869 8.697C49.9071 8.85657 49.8672 9.05604 49.8672 9.25551V18.4709C49.8672 19.0693 49.9869 19.6677 50.2262 20.2263C50.6651 21.1039 51.423 21.7422 52.3805 22.0215C52.7794 22.1411 53.1784 22.2209 53.5773 22.2209H62.7927C62.8725 22.2209 62.9523 22.1411 62.9523 22.0614V19.5481C62.9523 19.4683 62.8725 19.3885 62.7927 19.3885H53.6172C53.1784 19.4284 52.7794 19.1491 52.7395 18.7103C52.7395 18.6305 52.7395 18.5906 52.7395 18.5108V16.4763H61.6757C61.7555 16.4763 61.8353 16.3965 61.8353 16.3167V13.7236C61.8353 13.6438 61.7555 13.564 61.6757 13.564H52.7395V10.6518L62.7927 10.6917Z" fill="#6D3815"/>
<path d="M78.87 22.4203C78.6705 22.4203 78.511 22.3804 78.3514 22.3405C78.1519 22.2607 77.9923 22.1411 77.8727 22.0214L68.8168 12.5267V22.1012C68.8168 22.1809 68.7769 22.2607 68.6971 22.2607H66.144C66.0642 22.2607 65.9844 22.2208 65.9844 22.1411V9.09584C65.9844 8.81658 66.0642 8.53733 66.2237 8.29797C66.3833 8.0586 66.5828 7.89903 66.862 7.77935C67.0216 7.69956 67.2211 7.65967 67.4205 7.65967C67.8195 7.65967 68.1785 7.81924 68.4179 8.0985L77.4737 17.5533V7.97882C77.4737 7.89903 77.5535 7.81924 77.6333 7.81924H80.1865C80.2663 7.81924 80.3461 7.85914 80.3461 7.93892V20.9442C80.3461 21.1437 80.3062 21.3432 80.2264 21.5028C80.1466 21.6623 80.0668 21.8219 79.9072 21.9416C79.7876 22.0613 79.628 22.1809 79.4684 22.2607C79.2689 22.3804 79.0695 22.4203 78.87 22.4203Z" fill="#6D3815"/>
<path d="M0 14.9202L13.883 28.8431C16.5559 25.0532 17.3936 20.8644 15.9176 17.3138C13.9229 12.6463 9.93351 9.29521 11.1303 3.75C5.30585 9.61436 0 14.9202 0 14.9202Z" fill="#6D3815"/>
<path d="M14.7207 11.1702C15.6782 13.2846 22.6197 20.9043 15.2792 29.9601L30.3191 14.9601L15.2792 0C15.2792 0 10.2925 3.75 14.7207 11.1702Z" fill="#F5881F"/>
<path d="M208.603 22.4203C208.404 22.4203 208.244 22.3804 208.085 22.3405C207.885 22.2607 207.726 22.1411 207.606 22.0214L198.55 12.5267V22.1012C198.55 22.1809 198.47 22.2607 198.39 22.2607H195.837C195.758 22.2607 195.678 22.1809 195.678 22.1012V9.09584C195.678 8.81658 195.758 8.53733 195.917 8.29797C196.077 8.0586 196.276 7.89903 196.555 7.77935C196.715 7.69956 196.914 7.65967 197.114 7.65967C197.194 7.65967 197.313 7.65967 197.393 7.69956C197.672 7.73945 197.912 7.89903 198.111 8.0985L207.167 17.5533V7.97882C207.167 7.89903 207.247 7.81924 207.287 7.81924H209.84C209.92 7.81924 210 7.89903 210 7.97882V20.9841C210 21.1836 209.96 21.3831 209.88 21.5426C209.72 21.9017 209.481 22.1411 209.122 22.3006C208.962 22.3804 208.763 22.4203 208.603 22.4203Z" fill="#F5881F"/>
<path d="M192.486 9.09584C192.486 8.45754 192.047 7.89903 191.449 7.69956C191.329 7.65967 191.21 7.65967 191.05 7.65967C190.851 7.65967 190.691 7.69956 190.531 7.77935C190.252 7.89903 190.013 8.0985 189.853 8.37775L184.188 18.2714L178.484 8.37775C178.404 8.25807 178.324 8.13839 178.204 8.01871C178.085 7.93892 177.965 7.85914 177.805 7.77935C177.646 7.73945 177.526 7.69956 177.367 7.69956H177.247C177.127 7.69956 177.008 7.69956 176.888 7.73945C176.569 7.81924 176.329 8.01871 176.13 8.25807C175.97 8.49743 175.851 8.81658 175.851 9.09584C175.851 9.21552 175.851 9.29531 175.89 9.41499L178.683 14.3219V14.282L182.952 21.782C183.071 21.9815 183.231 22.1809 183.47 22.3006C183.67 22.4203 183.909 22.4602 184.148 22.5001C184.388 22.5001 184.627 22.4203 184.867 22.3405C185.066 22.2208 185.265 22.0214 185.385 21.8219L185.784 21.1038L192.446 9.3352C192.486 9.21552 192.486 9.17562 192.486 9.09584Z" fill="#F5881F"/>
<path d="M178.883 19.3882H175.971C175.891 19.3882 175.812 19.4281 175.812 19.5079V22.0611C175.812 22.1408 175.891 22.2206 175.971 22.2206H178.883V19.3882Z" fill="#F5881F"/>
</svg>
