<svg id="Layer_1" data-name="Layer 1" xmlns="http://www.w3.org/2000/svg" viewBox="0 0 1280 914.92"><defs><style>.cls-1{fill:#231f20;}</style></defs><title>Iconic Black</title><path class="cls-1" d="M602.34,444.88c-14.1,41.62-30.47,85-49.48,129V849.06Q588.16,847.35,624,847V445.43C616.78,445.29,609.53,445.2,602.34,444.88Z"/><path class="cls-1" d="M454.79,727.08a1054.58,1054.58,0,0,1-61.54,87.07v49.51q45.9-6.4,93.16-10.44c1.85-.17,3.66-.42,5.51-.59V732.36C479.49,730.76,467.09,729.09,454.79,727.08Z"/><path class="cls-1" d="M677.66,444.88c14.1,41.62,30.47,85,49.48,129V849.06Q691.85,847.35,656,847V445.43C663.22,445.29,670.47,445.2,677.66,444.88Z"/><path class="cls-1" d="M825.21,727.08a1054.58,1054.58,0,0,0,61.54,87.07v49.51q-45.9-6.4-93.16-10.44c-1.86-.17-3.66-.42-5.51-.59V732.36C800.51,730.76,812.91,729.09,825.21,727.08Z"/><path class="cls-1" d="M1280,146l-7.61,6.71A830.84,830.84,0,0,1,938.1,390.5c-1.7.66-3.4,1.44-5.11,2.09,11.52,1.63,80.29,9.55,168.8-31.65-85,102.83-89,317.84-89,317.84C943.39,617,768.6,490.7,640,0,511.4,490.7,336.61,617,267.23,678.78c0,0-4-215-89-317.84,88.51,41.2,157.28,33.28,168.8,31.65-1.71-.65-3.41-1.43-5.11-2.09A830.84,830.84,0,0,1,7.61,152.75L0,146A825.14,825.14,0,0,1,153.82,626.82a827.88,827.88,0,0,1-42.65,262.46c1.5,19.21,32,30.09,53.45,23.91,22.82-6.56,41.41-15.13,55.55-25.3C456.87,717.75,584.36,401.94,640,188.62c55.64,213.32,183.13,529.13,419.83,699.27,14.14,10.17,32.73,18.74,55.55,25.3,21.5,6.18,51.95-4.7,53.45-23.91A828.48,828.48,0,0,1,1280,146Z"/></svg>